<mxfile host="app.diagrams.net" modified="2022-03-16T10:03:19.683Z" agent="5.0 (Windows NT 10.0; Win64; x64) AppleWebKit/537.36 (KHTML, like Gecko) Chrome/98.0.4758.109 Safari/537.36 OPR/84.0.4316.36" etag="olQbaK6ZedB9CeR5pl0m" version="17.1.2" type="github" pages="2">
  <diagram id="Onil-J-Lb2S4ngcwoNs3" name="InterfaceGraphique">
    <mxGraphModel dx="1371" dy="719" grid="1" gridSize="10" guides="1" tooltips="1" connect="1" arrows="1" fold="1" page="1" pageScale="1" pageWidth="827" pageHeight="1169" math="0" shadow="0">
      <root>
        <mxCell id="0" />
        <mxCell id="1" parent="0" />
        <mxCell id="3fpmEe9FC_EFH1_zwxbF-5" value="&lt;p style=&quot;margin:0px;margin-top:4px;text-align:center;&quot;&gt;&lt;b&gt;Class&lt;/b&gt;&lt;/p&gt;&lt;hr size=&quot;1&quot;/&gt;&lt;p style=&quot;margin:0px;margin-left:4px;&quot;&gt;+ field: Type&lt;/p&gt;&lt;hr size=&quot;1&quot;/&gt;&lt;p style=&quot;margin:0px;margin-left:4px;&quot;&gt;+ method(): Type&lt;/p&gt;" style="verticalAlign=top;align=left;overflow=fill;fontSize=12;fontFamily=Helvetica;html=1;" vertex="1" parent="1">
          <mxGeometry x="330" y="230" width="160" height="90" as="geometry" />
        </mxCell>
      </root>
    </mxGraphModel>
  </diagram>
  <diagram id="YGg2rZB6yz5wcsw4N4a4" name="FctsCrypto">
    <mxGraphModel grid="1" gridSize="10" guides="1" tooltips="1" connect="1" arrows="1" page="1" fold="1" pageScale="1" pageWidth="827" pageHeight="1169" math="0" shadow="0">
      <root>
        <mxCell id="4x20KhhNzzTn9MA3KTla-0" />
        <mxCell id="4x20KhhNzzTn9MA3KTla-1" parent="4x20KhhNzzTn9MA3KTla-0" />
        <mxCell id="hZ5mlCI5GJ1jsmW44s3F-0" value="Fonctions Crypto" style="text;html=1;strokeColor=none;fillColor=none;align=center;verticalAlign=middle;whiteSpace=wrap;rounded=0;" vertex="1" parent="4x20KhhNzzTn9MA3KTla-1">
          <mxGeometry x="380" y="295" width="60" height="30" as="geometry" />
        </mxCell>
        <mxCell id="tCT-U6A-kNsw4rHphWRb-0" value="" style="ellipse;whiteSpace=wrap;html=1;fillColor=none;" vertex="1" parent="4x20KhhNzzTn9MA3KTla-1">
          <mxGeometry x="350" y="270" width="120" height="80" as="geometry" />
        </mxCell>
        <mxCell id="tCT-U6A-kNsw4rHphWRb-1" value="" style="triangle;whiteSpace=wrap;html=1;direction=south;fillColor=none;" vertex="1" parent="4x20KhhNzzTn9MA3KTla-1">
          <mxGeometry x="370" y="360" width="80" height="60" as="geometry" />
        </mxCell>
      </root>
    </mxGraphModel>
  </diagram>
</mxfile>
